<?xml version="1.0" encoding="utf-8"?>
<!-- Generator: Adobe Illustrator 19.0.0, SVG Export Plug-In . SVG Version: 6.00 Build 0)  -->
<svg version="1.1" id="Layer_1" xmlns="http://www.w3.org/2000/svg" xmlns:xlink="http://www.w3.org/1999/xlink" x="0px" y="0px"
	 viewBox="0 0 36 36" style="enable-background:new 0 0 36 36;" xml:space="preserve">
<style type="text/css">
	.st0{fill:#FFFFFF;}
</style>
<g>
	<path class="st0" d="M18,0C8.1,0,0,8.1,0,18c0,9.9,8.1,18,18,18c9.9,0,18-8.1,18-18C36,8.1,27.9,0,18,0z M18,34.5
		C8.9,34.5,1.5,27.1,1.5,18C1.5,8.9,8.9,1.5,18,1.5S34.5,8.9,34.5,18C34.5,27.1,27.1,34.5,18,34.5z"/>
	<path class="st0" d="M19.6,11.7c0-0.9,0.6-1.1,1-1.1c0.4,0,2.5,0,2.5,0V6.8l-3.4,0c-3.8,0-4.7,2.8-4.7,4.7V14h-2.2v3.9H15
		c0,5,0,11.1,0,11.1h4.6c0,0,0-6.1,0-11.1h3.1l0.4-3.9h-3.5V11.7z"/>
</g>
</svg>
