<?xml version="1.0" encoding="utf-8"?>
<!-- Generator: Adobe Illustrator 19.0.0, SVG Export Plug-In . SVG Version: 6.00 Build 0)  -->
<svg version="1.1" id="Layer_1" xmlns="http://www.w3.org/2000/svg" xmlns:xlink="http://www.w3.org/1999/xlink" x="0px" y="0px"
	 viewBox="0 0 36 36" style="enable-background:new 0 0 36 36;" xml:space="preserve">
<style type="text/css">
	.st0{fill:#FFFFFF;}
</style>
<g>
	<path class="st0" d="M18.7,0c-0.2,0-0.5,0-0.7,0C8.4,0,0.4,7.6,0,17.3C-0.4,27.2,7.4,35.6,17.3,36c0.2,0,0.5,0,0.7,0
		c9.6,0,17.6-7.6,18-17.3C36.4,8.8,28.6,0.4,18.7,0z M18,34.5c-0.2,0-0.4,0-0.7,0c-9.1-0.4-16.2-8-15.8-17.1C1.9,8.5,9.1,1.5,18,1.5
		c0.2,0,0.4,0,0.7,0c9.1,0.4,16.2,8,15.8,17.1C34.1,27.5,26.9,34.5,18,34.5z"/>
	<path class="st0" d="M23.9,17.8c0,3.3-2.7,6-6,6c-3.3,0-6-2.7-6-6c0-0.7,0.1-1.3,0.3-1.9H8.6v8.2c0,1.8,1.5,3.3,3.3,3.3h12.2
		c1.8,0,3.3-1.5,3.3-3.3v-8.2h-3.8C23.8,16.5,23.9,17.1,23.9,17.8z"/>
	<path class="st0" d="M22,17.8c0-2.2-1.8-4-4-4c-2.2,0-4,1.8-4,4s1.8,4,4,4C20.2,21.8,22,20,22,17.8z"/>
	<path class="st0" d="M24.1,8.6H13.6h-0.4h-0.1h-0.7h-0.1h-0.4h-0.1h-0.4c-1.6,0.2-2.8,1.6-2.8,3.2v3.4h3.9c1.1-1.9,3-3.2,5.4-3.2
		s4.4,1.3,5.4,3.2h4.2v-3.3C27.4,10,25.9,8.6,24.1,8.6z M25.6,12.1c0,0.4-0.3,0.7-0.7,0.7h-1.6c-0.4,0-0.7-0.3-0.7-0.7v-1.6
		c0-0.4,0.3-0.7,0.7-0.7h1.6c0.4,0,0.7,0.3,0.7,0.7V12.1z"/>
</g>
</svg>
