<?xml version="1.0" encoding="utf-8"?>
<!-- Generator: Adobe Illustrator 19.0.0, SVG Export Plug-In . SVG Version: 6.00 Build 0)  -->
<svg version="1.1" id="Layer_1" xmlns="http://www.w3.org/2000/svg" xmlns:xlink="http://www.w3.org/1999/xlink" x="0px" y="0px"
	 viewBox="0 0 36 36" style="enable-background:new 0 0 36 36;" xml:space="preserve">
<style type="text/css">
	.st0{fill:#FFFFFF;}
</style>
<g>
	<path class="st0" d="M18.7,0c-0.2,0-0.5,0-0.7,0C8.4,0,0.4,7.6,0,17.3C-0.4,27.2,7.4,35.6,17.3,36c0.2,0,0.5,0,0.7,0
		c9.6,0,17.6-7.6,18-17.3C36.4,8.8,28.6,0.4,18.7,0z M18,34.5c-0.2,0-0.4,0-0.7,0c-9.1-0.4-16.2-8-15.8-17.1C1.9,8.5,9.1,1.5,18,1.5
		c0.2,0,0.4,0,0.7,0c9.1,0.4,16.2,8,15.8,17.1C34.1,27.5,26.9,34.5,18,34.5z"/>
	<path class="st0" d="M27.8,11.6c-0.8,0.4-1.7,0.7-2.6,0.9c-0.7-0.8-1.7-1.3-2.9-1.4c-2.2-0.1-4.1,1.6-4.2,3.9c0,0.3,0,0.6,0.1,0.9
		c-3.3-0.3-6.2-2-8.1-4.5c-0.4,0.6-0.6,1.3-0.6,2c-0.1,1.4,0.6,2.6,1.7,3.4c-0.7,0-1.3-0.3-1.8-0.6c0,0,0,0,0,0.1
		c-0.1,1.9,1.2,3.6,3.1,4.1c-0.3,0.1-0.7,0.1-1.1,0.1c-0.3,0-0.5,0-0.8-0.1c0.4,1.6,1.9,2.8,3.6,2.9c-1.4,1-3.2,1.6-5.1,1.5
		c-0.3,0-0.6,0-1-0.1c1.7,1.2,3.8,2,6.1,2C21.7,27,26,21,26.2,15.7c0-0.2,0-0.3,0-0.5c0.8-0.5,1.5-1.2,2.1-2
		c-0.7,0.3-1.5,0.5-2.3,0.5C26.8,13.3,27.5,12.5,27.8,11.6z"/>
</g>
</svg>
