<?xml version="1.0" encoding="utf-8"?>
<!-- Generator: Adobe Illustrator 19.0.0, SVG Export Plug-In . SVG Version: 6.00 Build 0)  -->
<svg version="1.1" id="Layer_1" xmlns="http://www.w3.org/2000/svg" xmlns:xlink="http://www.w3.org/1999/xlink" x="0px" y="0px"
	 viewBox="0 0 36 36" style="enable-background:new 0 0 36 36;" xml:space="preserve">
<style type="text/css">
	.st0{fill:#FFFFFF;}
</style>
<g>
	<path class="st0" d="M18,0C8.1,0,0,8.1,0,18c0,9.9,8.1,18,18,18c9.9,0,18-8.1,18-18C36,8.1,27.9,0,18,0z M18,34.5
		C8.9,34.5,1.5,27.1,1.5,18C1.5,8.9,8.9,1.5,18,1.5S34.5,8.9,34.5,18C34.5,27.1,27.1,34.5,18,34.5z"/>
	<path class="st0" d="M27,11.4C26.6,11.1,25.9,11,25,11c-1.5-0.1-4.1-0.2-7-0.2c-2.8,0-5.4,0.1-7,0.2c-1,0.1-1.7,0.2-2.1,0.5
		c-0.2,0.2-0.6,0.6-0.8,2.1c-0.2,2.1-0.2,6.9,0,9c0.2,1.5,0.5,1.9,0.8,2.1C9.4,24.9,10.1,25,11,25c1.5,0.1,4.1,0.2,7,0.2
		c2.8,0,5.4-0.1,7-0.2c1-0.1,1.7-0.2,2.1-0.5c0.2-0.2,0.6-0.6,0.8-2.1c0.2-2.1,0.2-6.9,0-9C27.6,12.1,27.3,11.6,27,11.4z M15.6,21.1
		v-6.3l6,3.1L15.6,21.1z"/>
</g>
</svg>
