<svg id="Layer_1" xmlns="http://www.w3.org/2000/svg" viewBox="-444 316 105 105"><style>.st0{fill:#fff}.st1{fill:#78a12e}</style><path class="st0" d="M-435.7 356.7l16.3 55.7 3.3 4.3 66-18.3-15.3-47.7s-22.7-13-23.7-11.7c-.9 1.4-46.6 17.7-46.6 17.7z"/><path class="st1" d="M-400.6 316.3l3 11.2 5.8-1.5-1.5-5.5zM-418.4 333.1l5.8-1.5-3-11.3-4.2 7.3zM-411.7 319.2l-2.9.8 1.6 5.8 12.9-3.5-1.5-5.8-3.7 1z"/><g><path class="st1" d="M-344.1 398.1l-.6.2-.1-.3 1.5-.4.1.3-.6.2.4 1.6-.3.1-.4-1.7zM-342.9 397.4l.3-.1.8.7.3-1 .4-.1.5 1.9-.3.1-.4-1.3-.4 1-.8-.7.4 1.3-.3.1-.5-1.9z"/></g><g><path class="st1" d="M-412.8 403l-2.1.6 1.2 4.7 2.2-.6c1.9-.5 3-1.6 2.6-3.2-.4-1.5-1.8-2.1-3.9-1.5zM-400.2 399.3l4.6-1.2-4-5.8zM-411.2 397.8c-.4-1.4-1.7-1.8-3.7-1.3l-1.8.5 1.2 4.4 1.9-.5c1.9-.6 2.7-1.7 2.4-3.1zM-405.1 373.7c-3.1.8-4.8 3.9-3.9 7.3.9 3.4 3.8 5.2 7 4.3 3.1-.8 4.8-3.9 3.9-7.2-.9-3.4-3.8-5.3-7-4.4zM-384.1 380.5c3.1-.8 4.8-3.9 3.9-7.2-.9-3.4-3.8-5.2-7-4.4-3.1.8-4.8 3.9-3.9 7.3.9 3.3 3.9 5.1 7 4.3z"/><path class="st1" d="M-366.6 320.3l-76.4 20.5 21.4 79.8 76.4-20.5-21.4-79.8zm-21.3 46c4.9-1.3 9.2 1.5 10.5 6.2 1.3 4.7-1.2 9.3-6.1 10.6-4.9 1.3-9.2-1.5-10.5-6.2-1.2-4.7 1.2-9.3 6.1-10.6zm-16.5-15.2l.7 2.5-1.4.4 4.4 4.4 1.6-6-1.5.4-.7-2.5 6.1-1.6.7 2.5-1.6.4-2.6 8.8 1 3.7 2-.5.7 2.5-6.9 1.8-.7-2.5 2-.5-1-3.7-6.6-6.3-1.6.4-.7-2.5 6.1-1.7zm3.1 36.8c-4.9 1.3-9.2-1.5-10.5-6.2-1.3-4.7 1.2-9.3 6.1-10.6 4.9-1.3 9.2 1.5 10.5 6.2 1.2 4.7-1.2 9.3-6.1 10.6zm-27-15.8l1.8-.5-3-11.2-1.8.5-.7-2.5 4.4-1.2 7.9 7.4 3.2-10.4 4.4-1.2.7 2.5-1.8.5 3 11.2 1.8-.5.7 2.5-6.8 1.8-.7-2.5 2.1-.6-1.8-6.6-.4-1.5-3 9.3H-418.6l-7.3-6.5.4 1.5 1.8 6.6 2.1-.6.7 2.5-6.8 1.8-.6-2.3zm5 18.7l1.8-.5-3-11.2-1.8.5-.7-2.5 11.9-3.2 1.2 4.6-2.7.7-.6-2.2-4.6 1.2 1.2 4.6 4.8-1.3.6 2.4-4.8 1.3 1.1 4.2 2.1-.6.7 2.5-6.8 1.8-.4-2.3zm12.4 19.3l-6.7 1.8-.7-2.5 1.8-.5-3-11.2-1.8.5-.7-2.5 6.5-1.7c4-1.1 6.4.2 7 2.7.5 1.9-.3 3.4-1.8 4.4 2.2 0 3.7.9 4.2 2.9.8 2.6-.9 5-4.8 6.1zm17-4.6l-.7-2.5 1.9-.5-1.6-2.4-6 1.6-.2 2.9 2-.5.7 2.5-6.2 1.7-.7-2.5 1.4-.4 1-12.3-1.8.5-.7-2.5 9.1-2.4.7 2.5-1.8.5 7 10.1 1.4-.4.7 2.5-6.2 1.6zm18.3-4.9l-.3-1.2c-.9 1.2-2.2 2.2-4 2.7-4 1.1-8.6-1.1-10-6.2-1.3-5 1.5-9.4 6.2-10.7 3.8-1 6.8.3 7.3 2.2.3 1.2-.2 2.2-1.2 2.5-1.1.3-2.1-.2-2.3-1.2-.1-.3-.1-.7-.1-.9-.6-.2-1.6-.4-3.1 0-3.1.8-4.9 3.8-4 7.3 1 3.6 4.1 5.2 6.9 4.4 1.7-.5 2.8-1.1 3.6-2.1l-.7-2.8-4 1.1-.6-2.4 6.8-1.8 2.2 8.4-2.7.7zm7.3-21.9l-5.8 1.6-.7-2.5 1.8-.5-3-11.2-1.8.5-.7-2.5 6.1-1.6c5.8-1.6 10.1.6 11.4 5.4 1.4 5-1 9.1-7.3 10.8z"/><path class="st1" d="M-371.8 365l-1.4.4 3 11.2 1.6-.4c4.2-1.1 5.7-4 4.8-7.4-.9-3.6-4-4.9-8-3.8z"/></g></svg>